<svg width="108" height="108" viewBox="0 0 108 108" fill="none" xmlns="http://www.w3.org/2000/svg">
  <rect width="108" height="108" fill="#1761B0"/>
  <path d="M54 81C68.9117 81 81 68.9117 81 54C81 39.0883 68.9117 27 54 27C39.0883 27 27 39.0883 27 54C27 68.9117 39.0883 81 54 81Z" fill="#F8F9FA" stroke="#F8F9FA" stroke-width="2"/>
  <path d="M54 74C65.0457 74 74 65.0457 74 54C74 42.9543 65.0457 34 54 34C42.9543 34 34 42.9543 34 54C34 65.0457 42.9543 74 54 74Z" fill="#1761B0" stroke="#F8F9FA" stroke-width="2"/>
  <path d="M54 67C61.1797 67 67 61.1797 67 54C67 46.8203 61.1797 41 54 41C46.8203 41 41 46.8203 41 54C41 61.1797 46.8203 67 54 67Z" fill="#F8F9FA" stroke="#F8F9FA" stroke-width="2"/>
</svg>