<svg width="1024" height="1024" viewBox="0 0 1024 1024" fill="none" xmlns="http://www.w3.org/2000/svg">
  <rect width="1024" height="1024" fill="#1761B0"/>
  <path d="M512 768C654.385 768 770 652.385 770 510C770 367.615 654.385 252 512 252C369.615 252 254 367.615 254 510C254 652.385 369.615 768 512 768Z" fill="#F8F9FA" stroke="#F8F9FA" stroke-width="10"/>
  <path d="M512 700C616.934 700 702 614.934 702 510C702 405.066 616.934 320 512 320C407.066 320 322 405.066 322 510C322 614.934 407.066 700 512 700Z" fill="#1761B0" stroke="#F8F9FA" stroke-width="10"/>
  <path d="M512 630C578.885 630 633 575.885 633 509C633 442.115 578.885 388 512 388C445.115 388 391 442.115 391 509C391 575.885 445.115 630 512 630Z" fill="#F8F9FA" stroke="#F8F9FA" stroke-width="10"/>
</svg>