<svg width="96" height="96" viewBox="0 0 96 96" fill="none" xmlns="http://www.w3.org/2000/svg">
  <rect width="96" height="96" rx="48" fill="#1761B0"/>
  <path d="M48 72C61.2548 72 72 61.2548 72 48C72 34.7452 61.2548 24 48 24C34.7452 24 24 34.7452 24 48C24 61.2548 34.7452 72 48 72Z" fill="#F8F9FA" stroke="#F8F9FA" stroke-width="2"/>
  <path d="M48 66C57.9411 66 66 57.9411 66 48C66 38.0589 57.9411 30 48 30C38.0589 30 30 38.0589 30 48C30 57.9411 38.0589 66 48 66Z" fill="#1761B0" stroke="#F8F9FA" stroke-width="2"/>
  <path d="M48 60C54.6274 60 60 54.6274 60 48C60 41.3726 54.6274 36 48 36C41.3726 36 36 41.3726 36 48C36 54.6274 41.3726 60 48 60Z" fill="#F8F9FA" stroke="#F8F9FA" stroke-width="2"/>
</svg>