<?xml version="1.0" encoding="utf-8"?>
<!-- Generator: Adobe Illustrator 26.1.0, SVG Export Plug-In . SVG Version: 6.00 Build 0)  -->
<svg version="1.1" id="Layer_1" xmlns="http://www.w3.org/2000/svg" xmlns:xlink="http://www.w3.org/1999/xlink" x="0px" y="0px"
	 viewBox="0 0 198 315" style="enable-background:new 0 0 198 315;" xml:space="preserve">
<style type="text/css">
	.st0{fill:#F8F9FA;stroke:#F8F9FA;stroke-width:0.9576;}
	.st1{fill:none;stroke:#000000;stroke-width:0.9576;}
	.st2{fill:#1761B0;stroke:#1761B0;stroke-width:0.9576;}
	.st3{fill:none;stroke:#000000;stroke-miterlimit:10;}
</style>
<path class="st0" d="M149.5,262.9h-101C26.7,262.9,9,245.2,9,223.4v-101c0-21.8,17.7-39.5,39.5-39.5h101c21.8,0,39.5,17.7,39.5,39.5
	v101C189,245.2,171.3,262.9,149.5,262.9z"/>
<path class="st1" d="M-269.8,11.2c-1.8-1.7-4-2.9-6.4-3.5l0,0c-1.1-0.3-2.3-0.4-3.6-0.4c-2.5,0-4.9,0.6-7,1.8
	c-2.6,1.4-4.7,3.5-6.2,6.2c0,0,0,0,0,0.1c-0.3,0.5-0.5,1.1-0.8,1.7c-0.8,1.9-1.2,3.9-1.2,6c0,4.6,1.9,8.7,4.9,11.6
	c2.7,2.6,6.3,4.1,10.2,4.1c8.4,0,15.1-7,15.1-15.7C-264.7,18.3-266.6,14-269.8,11.2z M-264.4-23.8c-0.1-3.7-1.5-7.1-3.7-9.8
	c-2.8-3.3-6.9-5.5-11.5-5.5c-4,0-7.6,1.6-10.3,4.2c-3,2.9-4.8,7-4.8,11.5c0,2.1,0.4,4.1,1.1,5.9c0.3,0.5,0.5,1,0.7,1.6l0,0
	c1.4,2.6,3.4,4.8,5.9,6.2c2.2,1.3,4.7,2,7.4,2c1.5,0,2.9-0.2,4.3-0.7c1.9-0.6,3.7-1.6,5.2-2.8c3.4-2.9,5.6-7.3,5.6-12.2
	C-264.3-23.5-264.3-23.7-264.4-23.8z M-286.8,9c-2.6,1.4-4.7,3.5-6.2,6.2c0,0,0,0,0,0.1c-0.3,0.5-0.5,1.1-0.8,1.7
	c-11.5,23.7-35.8,40.1-64,40.1c-9.3,0-18.2-1.8-26.4-5.1c10.7-29.9,39.1-51.4,72.6-52C-345.4-0.7-374-22.6-384.5-53
	c-22,8.9-38.5,28.5-43.1,52.4c-0.1,0.4-0.1,0.7-0.2,1.1c-0.7,4-1.1,8.2-1.1,12.4c0,28.1,16.4,52.5,40.1,64c9.4,4.6,19.9,7.1,31,7.1
	c2.3,0,4.6-0.1,6.9-0.3c28.7-2.8,52.4-22.6,60.8-49.2c2.2-6.8,3.3-14,3.3-21.6C-286.7,11.7-286.7,10.3-286.8,9z M-308.9,0
	c-0.4,0-0.9,0-1.3,0c-0.4,0-0.9,0-1.3,0c0.4,0,0.9,0,1.3,0C-309.8,0-309.4,0-308.9,0z M-289.8-34.8c-7.2-23.6-26.4-42-50.5-48.1
	c-5.6-1.4-11.5-2.2-17.5-2.2c-11.1,0-21.6,2.5-31,7.1c-23.7,11.5-40.1,35.8-40.1,64c0,4.3,0.4,8.5,1.1,12.6l0,0
	c0.1,0.3,0.1,0.6,0.2,0.9c4.6,24,21.2,43.6,43.4,52.5c10.7-29.9,39.1-51.4,72.6-52c-33.8-0.6-62.4-22.5-72.9-52.9
	c8.2-3.3,17.3-5.2,26.7-5.2c28.4,0,52.9,16.6,64.3,40.7c0.3,0.5,0.5,1,0.7,1.6l0,0c1.4,2.6,3.4,4.8,5.9,6.2c0.1-1.5,0.1-2.9,0.1-4.4
	C-286.7-21.3-287.8-28.3-289.8-34.8z M-293,15.3c-0.3,0.5-0.5,1.1-0.8,1.7C-293.5,16.4-293.2,15.8-293,15.3z M-308.9,0
	c-0.4,0-0.9,0-1.3,0c-0.4,0-0.9,0-1.3,0c0.4,0,0.9,0,1.3,0C-309.8,0-309.4,0-308.9,0z M-269.8,11.2c-1.8-1.7-4-2.9-6.4-3.5l0,0
	c-1.1-0.3-2.3-0.4-3.6-0.4c-2.5,0-4.9,0.6-7,1.8c-2.6,1.4-4.7,3.5-6.2,6.2c0,0,0,0,0,0.1c-0.3,0.5-0.5,1.1-0.8,1.7
	c-11.5,23.7-35.8,40.1-64,40.1c-9.3,0-18.2-1.8-26.4-5.1c10.7-29.9,39.1-51.4,72.6-52c-33.8-0.6-62.4-22.5-72.9-52.9
	c8.2-3.3,17.3-5.2,26.7-5.2c28.4,0,52.9,16.6,64.3,40.7c0.3,0.5,0.5,1,0.7,1.6l0,0c1.4,2.6,3.4,4.8,5.9,6.2c2.2,1.3,4.7,2,7.4,2
	c1.5,0,2.9-0.2,4.3-0.7c1.9-0.6,3.7-1.6,5.2-2.8c2.6-1.6,5.1-3.3,7.5-5.1c-0.5-2.6-1.2-5.1-1.9-7.6c-1-3.4-2.2-6.6-3.7-9.8
	c-12.5-28-40-47.8-72.2-49.3c-1.3-0.1-2.7-0.1-4-0.1c-16.2,0-31.3,4.6-44.1,12.6c-23.1,14.4-38.7,39.9-39.4,69l0,0
	c0,0.6,0,1.3,0,1.9v0.1c0,29.8,15.7,56,39.3,70.8c11,6.9,23.8,11.3,37.6,12.4c2.2,0.2,4.4,0.3,6.6,0.3c40.7,0,74.6-29.1,82-67.6
	C-264.7,14.5-267.2,12.7-269.8,11.2z M-308.9,0c-0.4,0-0.9,0-1.3,0c-0.4,0-0.9,0-1.3,0c0.4,0,0.9,0,1.3,0C-309.8,0-309.4,0-308.9,0z
	 M-262.3,16.3c-2.4-1.9-4.9-3.6-7.5-5.1c-2.1-1.3-4.2-2.4-6.4-3.5l0,0c-1.1-0.3-2.3-0.4-3.6-0.4c-2.5,0-4.9,0.6-7,1.8
	c-2.6,1.4-4.7,3.5-6.2,6.2c0,0,0,0,0,0.1c-0.3,0.5-0.5,1.1-0.8,1.7c-11.5,23.7-35.8,40.1-64,40.1c-9.3,0-18.2-1.8-26.4-5.1
	c-2.2,6.1-3.7,12.6-4.3,19.4c-0.2,1.9-0.3,3.7-0.3,5.6c0,0.5,0,1,0,1.5c0,43.4,35.2,78.5,78.5,78.5s78.5-35.2,78.5-78.5
	C-231.7,53.2-243.7,30.7-262.3,16.3z M-308.9,0c-0.4,0-0.9,0-1.3,0c-0.4,0-0.9,0-1.3,0c0.4,0,0.9,0,1.3,0C-309.8,0-309.4,0-308.9,0z
	 M-310.3-157.1c-43.4,0-78.5,35.2-78.5,78.5c0,0.2,0,0.4,0,0.5c0,2.6,0.2,5.1,0.4,7.6c0.6,6.1,1.9,12,3.9,17.5
	c8.2-3.3,17.3-5.2,26.7-5.2c28.4,0,52.9,16.6,64.3,40.7c0.3,0.5,0.5,1,0.7,1.6l0,0c1.4,2.6,3.4,4.8,5.9,6.2c2.2,1.3,4.7,2,7.4,2
	c1.5,0,2.9-0.2,4.3-0.7c1.8-0.9,3.5-1.8,5.2-2.8c2.6-1.6,5.1-3.3,7.5-5.1c18.7-14.3,30.7-36.9,30.7-62.3
	C-231.7-121.9-266.9-157.1-310.3-157.1z M-311.6,0c0.4,0,0.9,0,1.3,0c0.4,0,0.9,0,1.3,0c-0.4,0-0.9,0-1.3,0
	C-310.7,0-311.2,0-311.6,0z"/>
<path class="st2" d="M37.1,173.8c0,5.4,0.5,10.7,1.5,15.8c2.4-1.9,4.9-3.6,7.5-5.1c1.8-1.7,4-2.9,6.4-3.5l0,0
	c1.1-0.3,2.3-0.4,3.6-0.4c2.5,0,4.9,0.6,7,1.8c2.6,1.4,4.7,3.5,6.2,6.2c0,0,0,0,0,0.1c0.3,0.5,0.5,1.1,0.8,1.7
	c11.5,23.7,35.8,40.1,64,40.1c9.3,0,18.2-1.8,26.4-5.1c-10.7-29.9-39.1-51.4-72.6-52c-0.4,0-0.9,0-1.3,0s-0.9,0-1.3,0
	c0.4,0,0.9,0,1.3,0s0.9,0,1.3,0c33.8-0.6,62.4-22.5,72.9-52.9c-8.2-3.3-17.3-5.2-26.7-5.2c-28.4,0-52.9,16.6-64.2,40.7
	c-0.2,0.5-0.5,1.1-0.7,1.6l0,0c-1.4,2.6-3.4,4.8-5.9,6.2c-2.2,1.3-4.7,2-7.4,2c-1.5,0-2.9-0.2-4.3-0.7c-1.9-0.6-3.7-1.6-5.2-2.8
	c-2.6-1.6-5.1-3.3-7.5-5.1C37.7,162.5,37.1,168.1,37.1,173.8z"/>
<path class="st3" d="M-221.8-18.5c3.2,6.6,10.1,10.8,17.6,10.8c7.4-0.1,14.1-4.3,17.2-10.9"/>
<path class="st3" d="M-221.8-18.1c2.7-6.6,8.7-11.1,15.6-11.8c8-0.8,15.8,3.9,19.2,11.6"/>
<circle cx="-204.4" cy="-18.6" r="3.1"/>
</svg>
